HIERARCHY
ROOT simHips
{
  OFFSET 6.13146 95.3961 -0.669452
  CHANNELS 6 Xposition Yposition Zposition Zrotation Xrotation Yrotation
  JOINT simSpine
  {
    OFFSET -0.000360269 21.3001 -0.0169217
    CHANNELS 3 Zrotation Xrotation Yrotation
    JOINT simLeftArm
    {
      OFFSET 13.5181 21.3012 -2.3511e-005
      CHANNELS 3 Zrotation Xrotation Yrotation
      JOINT simLeftForeArm
      {
        OFFSET 24.5783 0 -6.3921e-005
        CHANNELS 3 Zrotation Xrotation Yrotation
        JOINT simLeftHand
        {
          OFFSET 24.5783 0 0
          CHANNELS 3 Zrotation Xrotation Yrotation
          End Site
          {
            OFFSET 7.32568 1.52588e-005 0.0169305
          }
        }
      }
    }
    JOINT simHead
    {
      OFFSET 0 27.4458 -0.00488811
      CHANNELS 3 Zrotation Xrotation Yrotation
      End Site
      {
        OFFSET 0 0 0
      }
    }
    JOINT simRightArm
    {
      OFFSET -13.5174 21.3012 -1.52733e-005
      CHANNELS 3 Zrotation Xrotation Yrotation
      JOINT simRightForeArm
      {
        OFFSET -24.5783 -0.000552281 0.000112897
        CHANNELS 3 Zrotation Xrotation Yrotation
        JOINT simRightHand
        {
          OFFSET -24.5783 0 1.19926e-005
          CHANNELS 3 Zrotation Xrotation Yrotation
          End Site
          {
            OFFSET -7.32568 1.52588e-005 0.0169305
          }
        }
      }
    }
  }
  JOINT simRightUpLeg
  {
    OFFSET -8.44614 -9.41038 0.835682
    CHANNELS 3 Zrotation Xrotation Yrotation
    JOINT simRightLeg
    {
      OFFSET -3.23466e-005 -40.9639 0
      CHANNELS 3 Zrotation Xrotation Yrotation
      JOINT simRightFoot
      {
        OFFSET 0 -40.9639 0
        CHANNELS 3 Zrotation Xrotation Yrotation
        End Site
        {
          OFFSET 0.50614 -9.67405 14.6709
        }
      }
    }
  }
  JOINT simLeftUpLeg
  {
    OFFSET 8.44614 -9.41038 0.835681
    CHANNELS 3 Zrotation Xrotation Yrotation
    JOINT simLeftLeg
    {
      OFFSET -0.00018133 -40.964 6.2497e-005
      CHANNELS 3 Zrotation Xrotation Yrotation
      JOINT simLeftFoot
      {
        OFFSET 0 -40.9639 0
        CHANNELS 3 Zrotation Xrotation Yrotation
        End Site
        {
          OFFSET -0.50614 -9.67405 14.6709
        }
      }
    }
  }
}
MOTION
Frames:	18
Frame Time:	0.0333333
91.6394 100.063 -7.12553 1.5852 8.40154 -40.0171 6.48798 0.402831 8.11083 -66.1154 3.83388 11.1879 -0.00010976 4.43912e-005 -82.4011 -28.2478 -43.1297 -44.4826 -1.12005 -2.9161 8.79308 67.1857 -0.0410567 27.6394 -0.000973129 6.12968e-005 110.911 175.118 -19.0625 -149.064 -16.9122 -0.688678 -28.828 -0.0036204 12.252 0.0359811 21.8128 -8.16595 3.23846 29.9104 -29.0665 20.821 0.00327807 28.2413 -0.0376066 -16.2224 -1.5835 -3.81515 
91.8305 99.9622 -7.42495 1.79274 9.11891 -40.5745 6.62394 0.919712 7.83787 -65.873 3.87224 10.5051 -0.000109883 4.53047e-005 -82.2438 -28.6097 -43.3892 -44.9738 -1.04938 -3.41805 9.97003 67.3831 -0.459657 27.4597 -0.000973869 6.31995e-005 111.592 174.858 -19.2922 -150.68 -16.9014 -2.36475 -28.5717 -0.00444532 13.5293 0.0361651 21.7787 -8.54659 3.38288 30.9317 -29.9409 21.855 0.00374187 28.8602 -0.0378283 -16.2186 -1.52094 -3.83117 
92.0547 99.8603 -7.71881 2.08924 9.90216 -41.0762 6.62158 1.41755 7.61193 -65.5824 3.87536 9.93117 -0.000109783 4.45675e-005 -82.3707 -28.4822 -43.12 -45.0504 -0.901674 -4.01544 10.813 67.5914 -0.911952 27.442 -0.000974424 6.45851e-005 112.09 174.047 -18.9462 -151.4 -16.9394 -4.16193 -28.419 -0.00531816 14.8659 0.0363792 21.744 -8.90845 3.51981 31.9238 -30.9317 22.8694 0.00416796 29.4223 -0.0380358 -16.1944 -1.41166 -3.80481 
92.3435 99.7289 -8.01395 2.45701 10.7336 -41.5437 6.39044 2.08873 7.31406 -65.245 3.74716 9.37572 -0.000109583 4.30441e-005 -82.633 -28.6371 -43.1959 -45.157 -0.370912 -4.96662 11.5821 67.8345 -1.36965 27.6235 -0.000974592 6.49959e-005 112.238 173.926 -18.9533 -152.089 -17.0547 -6.08898 -28.3517 -0.00626638 16.2995 0.0366339 21.7275 -9.2686 3.65961 32.9624 -32.1095 23.972 0.00211575 30.132 -0.0331331 -16.1207 -1.33985 -3.81251 
92.737 99.5515 -8.2575 2.73403 11.6512 -41.9784 6.1609 3.11142 6.96018 -64.9953 3.38229 8.69084 -0.00010944 4.1925e-005 -82.8255 -29.3593 -43.5451 -45.7269 -0.148579 -6.29877 12.6045 68.0282 -1.72253 27.782 -0.000974377 6.44682e-005 112.048 172.902 -18.1883 -153.782 -17.0734 -8.06521 -28.1919 -0.00727765 17.8055 0.0369305 21.7455 -9.68328 3.68613 34.2492 -33.4179 25.2319 -8.64568e-005 31.0926 -0.027943 -15.9929 -1.35166 -3.92387 
93.2116 99.3299 -8.45579 2.98234 12.5709 -42.3226 5.77984 4.44374 6.67029 -64.7512 3.00114 7.76919 -0.000109397 4.15848e-005 -82.8841 -28.4451 -43.0189 -45.3875 0.106211 -7.81075 13.4401 68.3896 -2.22557 27.9501 -0.000974142 6.38847e-005 111.838 172.442 -18.0019 -154.596 -17.1077 -10.0173 -28.0351 -0.00756753 19.3481 0.0349607 21.8123 -10.133 3.63477 35.6293 -34.8436 26.5461 -0.000147688 32.2567 -0.0227334 -15.848 -1.44113 -4.11027 
93.7596 99.0664 -8.60055 3.26626 13.5244 -42.5755 5.39266 5.79209 6.58892 -64.6741 2.53902 6.8282 -0.000109313 4.09053e-005 -83.0009 -27.2306 -42.1806 -44.5573 0.22213 -9.02751 13.9594 68.71 -2.64572 28.0381 -0.000973386 6.19654e-005 111.15 171.967 -17.8242 -155.335 -17.214 -11.988 -28.0269 -0.00751099 20.9015 0.0323077 21.9061 -10.5514 3.59461 37.0793 -36.4504 27.9168 -6.24255e-006 33.599 -0.0170783 -15.6684 -1.59679 -4.33263 
94.345 98.7689 -8.6693 3.58682 14.544 -42.8372 5.0686 6.9882 6.71528 -64.8109 2.03277 6.02062 -0.000109325 4.09984e-005 -82.9849 -26.4786 -41.3508 -44.112 0.227704 -10.1467 14.2598 69.1531 -3.14233 28.1379 -0.000972363 5.9254e-005 110.183 171.552 -17.4276 -155.948 -17.3485 -14.0019 -28.0992 -0.00717332 22.439 0.0293123 22.0178 -10.9339 3.58271 38.6767 -38.1341 29.4397 0.000115178 35.0619 -0.0113134 -15.4664 -1.83227 -4.57751 
94.9553 98.4366 -8.66238 3.92259 15.5823 -43.0888 4.76682 8.05187 6.96761 -65.1693 1.48892 5.24659 -0.000109585 4.30656e-005 -82.6293 -25.9928 -40.5119 -44.2964 0.105913 -11.1961 14.4771 69.7501 -3.68724 28.2385 -0.000971166 5.58878e-005 108.991 171.425 -16.9985 -156.496 -17.5229 -15.9968 -28.2278 -0.00661073 23.9673 0.0261584 22.1471 -11.3075 3.58365 40.38 -39.8377 31.0536 -1.1411e-005 36.6181 -0.00556168 -15.2547 -2.14889 -4.82946 
95.5797 98.082 -8.59863 4.25089 16.5933 -43.223 4.50589 9.01536 7.27571 -65.5739 1.17812 4.47502 -0.000109985 4.60471e-005 -82.1159 -25.1301 -39.7331 -44.4463 -0.196082 -12.3324 14.4996 70.332 -4.10103 28.3175 -0.000969623 5.11857e-005 107.34 171.56 -16.6948 -156.606 -17.7618 -17.8572 -28.5071 -0.00576529 25.4285 0.022778 22.2957 -11.6599 3.60567 42.0514 -41.5649 32.5676 -0.000582275 38.1807 0.000296738 -15.0402 -2.50109 -5.0401 
96.2141 97.7169 -8.48028 4.61513 17.5661 -43.2497 4.25216 9.82375 7.67502 -65.9907 1.02976 3.66403 -0.000110502 4.96374e-005 -81.4968 -24.0992 -38.7694 -44.1999 -0.494661 -13.3347 14.2772 70.9367 -4.56574 28.3818 -0.000967917 4.53634e-005 105.316 171.779 -16.7352 -157.226 -18.1111 -19.594 -28.9407 -0.00457433 26.7961 0.0190533 22.4537 -11.9725 3.6346 43.6028 -43.3306 33.9202 -8.20644e-005 39.698 0.00633545 -14.8284 -2.87981 -5.15715 
96.8292 97.3514 -8.32211 4.94268 18.4882 -43.0847 4.06366 10.5214 8.12363 -66.3855 1.20773 2.8257 -0.000111161 5.38605e-005 -80.7672 -22.7199 -37.6544 -43.9223 -0.738608 -14.1005 13.6795 71.5237 -5.1279 28.4601 -0.000966318 3.90588e-005 103.146 172.222 -17.0934 -157.593 -18.5355 -21.1154 -29.5498 -0.00356575 28.0622 0.016115 22.6205 -12.2689 3.65828 45.0459 -45.0783 35.2082 -0.00122486 41.1056 0.0122633 -14.5841 -3.21777 -5.34956 
97.3758 97.0001 -8.13869 5.16049 19.2917 -42.7317 3.92188 11.201 8.56021 -66.5831 1.58914 2.05698 -0.00011175 5.73711e-005 -80.1597 -21.3076 -36.6892 -43.4131 -0.98171 -14.8326 12.9017 72.0447 -5.59728 28.5537 -0.000964854 3.21509e-005 100.79 172.749 -17.6991 -157.419 -18.9719 -22.2933 -30.2462 -0.00304685 29.1797 0.0144848 22.8009 -12.57 3.67409 46.303 -46.6947 36.2904 -0.00798677 42.3918 0.0174909 -14.3424 -3.53953 -5.58921 
97.8138 96.6916 -7.99081 5.30528 19.9601 -42.2352 3.78153 11.8698 8.92814 -66.5819 1.92763 1.34743 -0.000112214 5.9981e-005 -79.7072 -20.2706 -35.9949 -42.4403 -1.21861 -15.6387 11.9589 72.4442 -5.8853 28.7175 -0.00096359 2.46082e-005 98.2381 173.225 -18.8688 -157.151 -19.4405 -23.1574 -31.004 -0.00255246 30.131 0.0130836 22.9652 -12.8522 3.67911 47.2784 -48.1991 37.1289 0.00596608 43.5237 0.0224112 -14.0967 -3.82468 -5.84861 
98.1321 96.4374 -7.88545 5.44771 20.6115 -41.6451 3.71341 12.3104 9.30338 -66.4812 2.35917 0.712444 -0.000112751 6.28704e-005 -79.2056 -19.5904 -35.5563 -41.8585 -1.51791 -16.2692 10.984 72.7207 -6.14026 28.8562 -0.000962651 1.68936e-005 95.6451 173.457 -20.0197 -157.466 -19.8967 -23.8462 -31.8253 -0.00209826 30.8963 0.0119058 23.1007 -13.1033 3.66011 48.1536 -49.6396 37.9008 3.09683e-005 44.485 0.026453 -13.8521 -4.05927 -6.11865 
98.4047 96.2193 -7.77328 5.58695 21.1824 -40.9864 3.59958 12.6776 9.71535 -66.2714 2.74742 0.0863776 -0.000113272 6.55399e-005 -78.7414 -19.3127 -35.3881 -41.7404 -1.73489 -16.987 9.92763 72.9141 -6.33791 29.0392 -0.000962075 9.40539e-006 93.1394 173.697 -21.0695 -157.355 -20.3902 -24.3686 -32.6708 -0.00171835 31.5531 0.0109568 23.238 -13.3403 3.62763 48.8318 -50.9665 38.6006 -0.00168333 45.2669 0.0292906 -13.5894 -4.23257 -6.44867 
98.6128 96.0355 -7.66686 5.69793 21.6224 -40.2557 3.41054 13.0517 10.1596 -65.9679 2.99255 -0.539236 -0.000113657 6.7445e-005 -78.4097 -18.9727 -35.1054 -41.5249 -1.92797 -17.5814 8.7987 73.0728 -6.46261 29.3281 -0.000961832 2.2407e-006 90.7476 173.763 -21.5199 -157.197 -20.907 -24.6936 -33.5094 -0.0014267 32.1279 0.0102328 23.3718 -13.5854 3.58489 49.2041 -52.1515 39.0374 -0.00133873 45.856 0.0315564 -13.3503 -4.36525 -6.76508 
98.7737 95.8896 -7.55549 5.71735 21.9949 -39.4275 3.33311 13.3866 10.5411 -65.6091 3.22003 -1.00492 -0.000113821 6.82424e-005 -78.2707 -18.4023 -34.8937 -40.9162 -2.12628 -17.9808 7.72851 73.1247 -6.47629 29.7894 -0.000961883 -4.7207e-006 88.4249 173.841 -21.1566 -157.118 -21.3206 -24.7764 -34.3576 -0.00120542 32.5103 0.00971369 23.4666 -13.7805 3.53428 49.3969 -53.2252 39.228 4.46918e-005 46.3036 0.0331321 -13.148 -4.45359 -7.07009 
